<svg viewBox="0 0 100 100" xmlns="http://www.w3.org/2000/svg">
  <defs>
    <linearGradient id="starGrad" x1="8" y1="20" x2="92" y2="80" gradientUnits="userSpaceOnUse">
      <stop offset="0" stop-color="#2f7be0"/>
      <stop offset="0.5" stop-color="#3f5fc4"/>
      <stop offset="1" stop-color="#e01528"/>
    </linearGradient>
    <linearGradient id="starEdge" x1="0" y1="0" x2="0" y2="1">
      <stop offset="0" stop-color="#ffffff" stop-opacity="0.55"/>
      <stop offset="0.35" stop-color="#ffffff" stop-opacity="0"/>
    </linearGradient>
  </defs>
  <!-- Estrella de 5 puntas con centro hueco (eco del logo USA Latino Prime) -->
  <path fill-rule="evenodd" fill="url(#starGrad)"
    d="M50 6 L61.8 38.2 L95 39 L68.5 59.2 L78 91 L50 71.5 L22 91 L31.5 59.2 L5 39 L38.2 38.2 Z
       M50 34 L46.2 45 L34.8 45.2 L44 52.2 L40.7 63.2 L50 56.5 L59.3 63.2 L56 52.2 L65.2 45.2 L53.8 45 Z"/>
  <path fill-rule="evenodd" fill="url(#starEdge)" opacity="0.6"
    d="M50 6 L61.8 38.2 L95 39 L68.5 59.2 L78 91 L50 71.5 L22 91 L31.5 59.2 L5 39 L38.2 38.2 Z
       M50 34 L46.2 45 L34.8 45.2 L44 52.2 L40.7 63.2 L50 56.5 L59.3 63.2 L56 52.2 L65.2 45.2 L53.8 45 Z"/>
</svg>
